<svg xmlns="http://www.w3.org/2000/svg" viewBox="0 0 250 250">

  
  <g id="flower_cluster">
    <path fill="#2B55A2" id="path1" d="m184.4 136.6-13.16 14.04 14.17 11.57 38.36-14.02-13.59-11.59h-25.78z">
      
      <animateTransform attributeName="transform" type="translate" values="0,0; -1,0.5; 0,0" dur="4s" repeatCount="indefinite"/>
    </path>
    <path fill="#F07E13" id="path2" d="m144.7 145.9-19.22 21.65 8.5 20.42 33.57 0.48 17.56-26.44-13.59-11.93-26.82-4.18z">
      
      <animateTransform attributeName="transform" type="translate" values="0,0; 0,1.5; 0,0" dur="8s" keyTimes="0; 0.4; 1" repeatCount="indefinite"/>
    </path>
    <path fill="#2B55A2" id="path3" d="m125.5 167.6-12.02-7.1-20.49 14.07 3.86 13.34h25.33l3.32-20.31z"/>
    <path fill="#26A9E0" id="path4" d="m84.93 188-6.15 37.37 43.43-37.55-37.28 0.18z">
      <animateTransform attributeName="transform" type="translate" values="0,0; 0.5,1; 0,0" dur="3s" repeatCount="indefinite"/>
    </path>
    <path fill="#2B55A2" id="path5" d="m122.2 187.8-9.67 47.66-33.76-10.11 43.43-37.55z"/>
    <path fill="#26A9E0" id="path6" d="m116.2 218 18.84 28.36 32.5-58.23-0.7-0.04-44.77-0.41-5.87 30.32z"/>
    <path fill="#119948" id="path7" d="m138.6 239.7-3.58 6.71 57.36-0.09-49.53-25.18-4.25 18.56z"/>
    <path fill="#119948" id="path8" d="m167.6 187.9 19.35 31.07 5.4 27.37 32.53-54.49 0.17-0.32-57.45-3.63z"/>
    <path fill="#26A9E0" id="path9" d="m167.5 188 18.1-26.35 26.31-9.77 21.97 18.54-8.73 21.23-57.65-3.65z"/>
    <path fill="#88C540" id="path10" d="m142.9 221.2 24.98-32.8 0.31-0.21 18.57 29.76 5.66 28.33-49.52-25.08z">
      <animateTransform attributeName="transform" type="translate" values="0,0; -0.5,0.5; 0,0" dur="5s" repeatCount="indefinite"/>
    </path>
    <path fill="#E95A20" id="path11" d="m125.5 167.6 34.69 8.81 11.32-26.28 13.62 11.93-18 25.94-45.06-0.35 3.43-20.05z"/>
  </g>

  
  <g id="pollen_particles">
    
    <polygon points="144,145 146,141 148,145" fill="#F07E13" opacity="0">
      <animate attributeName="opacity" values="0; 1; 0" dur="1.5s" repeatCount="indefinite" begin="0s"/>
      <animateTransform attributeName="transform" type="translate" values="0,0; -25,-40" dur="1.5s" repeatCount="indefinite" begin="0s"/>
    </polygon>
    <polygon points="150,150 152,146 154,150" fill="#EAB804" opacity="0">
      <animate attributeName="opacity" values="0; 1; 0" dur="2s" repeatCount="indefinite" begin="0.5s"/>
      <animateTransform attributeName="transform" type="translate" values="0,0; -35,-50" dur="2s" repeatCount="indefinite" begin="0.5s"/>
    </polygon>
    <polygon points="135,148 137,144 139,148" fill="#FCD205" opacity="0">
      <animate attributeName="opacity" values="0; 1; 0" dur="1.8s" repeatCount="indefinite" begin="1s"/>
      <animateTransform attributeName="transform" type="translate" values="0,0; -20,-45" dur="1.8s" repeatCount="indefinite" begin="1s"/>
    </polygon>
  </g>

  
  <g id="bee_group">
    
    <animateTransform attributeName="transform" type="translate" values="0,0; 10,-8; 20,0; 10,8; 0,0; -10,-8; -20,0; -10,8; 0,0; 5,5; -100,-150; 0,0" keyTimes="0; 0.1; 0.2; 0.3; 0.4; 0.5; 0.6; 0.7; 0.8; 0.85; 0.95; 1" dur="8s" repeatCount="indefinite"/>
    
    <animateTransform attributeName="transform" type="rotate" values="0 100 80; 5 100 80; -5 100 80; 5 100 80; 0 100 80; -5 100 80; 5 100 80; -5 100 80; 0 100 80; -20 100 80; -45 100 80; 0 100 80" keyTimes="0; 0.1; 0.2; 0.3; 0.4; 0.5; 0.6; 0.7; 0.8; 0.85; 0.95; 1" dur="8s" repeatCount="indefinite" additive="sum"/>

    <path fill="#FCD205" id="path12" d="m15.21 25.41 10.47 31.35 95.72 23.04-0.73-5.55-105.5-48.84z">
      
      <animateTransform attributeName="transform" type="rotate" values="0 121 80; -45 121 80; 0 121 80" dur="0.04s" repeatCount="indefinite"/>
      <animate attributeName="opacity" values="1; 0.5; 1" dur="0.04s" repeatCount="indefinite"/>
    </path>
    <path fill="#EAB804" id="path13" d="m48.27 3-1.44 32.04 74.15 45.68-0.5-4.21-72.21-73.51z">
      
      <animateTransform attributeName="transform" type="rotate" values="0 121 80; -55 121 80; 0 121 80" dur="0.04s" repeatCount="indefinite" begin="0.01s"/>
      <animate attributeName="opacity" values="0.8; 0.4; 0.8" dur="0.04s" repeatCount="indefinite" begin="0.01s"/>
    </path>
    
    <path fill="#FCD205" id="path14" d="m133.5 70.06 12.21-7.7 16.22 5.45 5.34 13.33v29.88l-27.24-13.33-10.9-16.6 4.37-11.03z"/>
    <path fill="#EAB804" id="path15" d="m126.9 74.01-9.84-0.19 1.56 6.1 10.9 0.15-2.62-6.06z"/>
    <path fill="#000" id="path16" d="m109.8 79.92h-67.67l11.19-16.79 66.5 16.79h-10.02z"/>
    <path fill="#FCD205" id="path17" d="m110.5 79.92-16.03 16.93 4.84 12.24 7.33 10.47h26.91l9.66-16.39-6.77-14.02-6.36-9.23h-19.58z"/>
    <path fill="#000" id="path18" d="m101.2 97.8 9.44-18h19.58l8.98 16.94-9.78 17.43h-19.13l-9.09-16.37z"/>
    <path fill="#000" id="path19" d="m71.88 96.91 22.63-0.06 9.36 17.38-9.36 21.47-22.63-35.42v-3.37z"/>
    
    <path fill="#000" id="path20" d="m42.08 120.1 12.33-12.93 35.45 32.68-13.59 13.39-34.19-33.14z">
      
      <animate attributeName="fill" values="#000000; #F07E13; #000000" dur="8s" keyTimes="0; 0.4; 1" repeatCount="indefinite"/>
    </path>
    
    <path fill="#F2C204" id="path21" d="m38.33 139.8 21.65 19.58 13.24-7.93-21.53-24.08-13.36 12.43z"/>
    <path fill="#EAB804" id="path22" d="m38.33 139.8 12.68-14.31c4.06 6.6 1.73 13.39-5.34 15.66l-7.34-1.35z"/>
    
    <path fill="#000" id="path23" d="m38.33 139.1v40.65l8.93-15.11 13.71-5.59-22.64-19.95z">
      
      <animate attributeName="fill" values="#000000; #F07E13; #000000" dur="8s" keyTimes="0; 0.5; 1" repeatCount="indefinite"/>
    </path>
    
    <path fill="#FCD205" id="path24" d="m54.35 106.5 39.58 39.04-0.06-10.53-19.96-37.98-19.56 9.47z"/>
    <path fill="#E2AC00" id="path25" d="m64.42 95.21c-6.46 0.56-7.89 5.85-8.01 8.91 0.41 5.5 4.47 9.43 9.36 9.24 6.06-0.25 8.87-4.58 8.74-8.57-0.25-5.68-4.2-9.96-10.09-9.58z"/>
    <path fill="#000" id="path26" d="m42.18 56.91c-8.68 0.79-11.26 8.79-11.26 11.48 0.09 7.86 6.09 11.83 11.96 11.65 7.93-0.27 11.36-6.16 11.36-10.58-0.58-8.44-6.19-12.95-12.06-12.55z"/>
    
    <path fill="#000" id="path27" d="m162.5 52.94 16.41-5.57-20.89 19.66 4.48-14.09z">
      
      <animateTransform attributeName="transform" type="rotate" values="0 155 65; 15 155 65; -10 155 65; 0 155 65; 0 155 65" keyTimes="0; 0.2; 0.6; 0.8; 1" dur="8s" repeatCount="indefinite"/>
    </path>
    <path fill="#000" id="path28" d="m174.8 60.71-12.33 8.03 28.07-2.61-15.74-5.42z">
      
      <animateTransform attributeName="transform" type="rotate" values="0 155 65; 20 155 65; -15 155 65; 0 155 65; 0 155 65" keyTimes="0; 0.2; 0.6; 0.8; 1" dur="8s" repeatCount="indefinite" begin="0.1s"/>
    </path>
    
    <path fill="#000" id="path29" d="m148.9 71.78c-7.77 0.81-9.8 7.57-9.8 10.71 0.55 7.64 6.51 10.43 10.78 10.08 6.92-0.56 10.22-5.91 10.12-9.9-0.6-7.53-5.99-11.25-11.1-10.89z"/>
    <path fill="#000" id="path30" d="m167.2 92.14v18.88l-7.93-4.3 7.93-14.58z"/>
  </g>
</svg>